<?xml version="1.0" encoding="UTF-8" standalone="no"?>
<!-- Created with Inkscape (http://www.inkscape.org/) -->

<svg
   width="210mm"
   height="297mm"
   viewBox="0 0 210 297"
   version="1.1"
   id="svg377"
   xml:space="preserve"
   inkscape:version="1.2.2 (732a01da63, 2022-12-09)"
   sodipodi:docname="arctex_path.svg"
   xmlns:inkscape="http://www.inkscape.org/namespaces/inkscape"
   xmlns:sodipodi="http://sodipodi.sourceforge.net/DTD/sodipodi-0.dtd"
   xmlns="http://www.w3.org/2000/svg"
   xmlns:svg="http://www.w3.org/2000/svg"><sodipodi:namedview
     id="namedview379"
     pagecolor="#505050"
     bordercolor="#eeeeee"
     borderopacity="1"
     inkscape:showpageshadow="0"
     inkscape:pageopacity="0"
     inkscape:pagecheckerboard="0"
     inkscape:deskcolor="#505050"
     inkscape:document-units="mm"
     showgrid="false"
     inkscape:zoom="0.18641099"
     inkscape:cx="206.53289"
     inkscape:cy="429.15926"
     inkscape:window-width="1920"
     inkscape:window-height="1017"
     inkscape:window-x="-8"
     inkscape:window-y="44"
     inkscape:window-maximized="1"
     inkscape:current-layer="layer1" /><defs
     id="defs374" /><g
     inkscape:label="Layer 1"
     inkscape:groupmode="layer"
     id="layer1"><path
       style="fill:#232323;stroke:none;stroke-width:0.352778"
       d="m -346.37665,64.745306 -7.12223,19.05001 -12.48375,32.808334 -30.99082,81.49167 -15.37264,40.56945 h 35.27778 9.17222 c 1.04528,0 2.74038,0.30692 3.6329,-0.36336 1.44569,-1.08303 1.92935,-4.68136 2.4818,-6.33942 1.84961,-5.54919 3.84033,-11.05606 5.75839,-16.58056 0.75424,-2.17311 1.22661,-6.78391 4.0072,-7.03439 14.89992,-1.34055 30.53574,-0.0212 45.50305,-0.0212 h 11.99444 c 1.39241,0 3.60998,-0.40922 4.84082,0.36336 1.69827,1.06186 2.3816,5.22464 3.02895,7.04497 1.87254,5.26345 3.65231,10.57628 5.41831,15.875 0.6089,1.82739 1.0534,5.13645 2.48179,6.49111 1.9939,1.88737 9.7663,0.56445 12.45235,0.56445 h 35.63056 l -5.14209,-14.11111 -10.23055,-26.81112 -33.29306,-87.48889 -12.47739,-32.808344 -3.34751,-8.81944 -1.7078,-3.51719 -3.6516,-0.36337 h -9.525 -36.33612 m 135.81946,0 V 238.66477 h 45.15555 v -66.67501 h 0.35278 c 2.43029,6.42056 7.76747,12.59417 11.52032,18.34445 6.80543,10.42458 13.37839,21.00086 20.22863,31.39722 2.61655,3.97228 5.19536,7.97984 7.74347,11.99445 0.91934,1.44992 1.93851,4.02519 3.61139,4.72722 1.4552,0.61031 3.67418,0.21167 5.22675,0.21167 h 11.28889 39.158343 l -5.51392,-7.76111 -11.64167,-15.16945 -37.172193,-48.33056 c 11.93517,-2.73755 22.958783,-8.763 29.975533,-19.05 14.62264,-21.4383 9.22161,-57.583924 -11.983873,-72.774534 -15.44179,-11.05958 -33.00836,-10.83381 -51.15278,-10.83381 h -56.79722 m 230.363903,0.14817 c -16.9086398,2.2225 -32.12042,6.13833 -46.21389,16.3442 -41.43728,30.003754 -45.13087,93.874174 -11.5817,130.968754 23.18456,25.63284 64.58303,33.93723 96.60115,21.58648 11.06664,-4.26861 21.38186,-10.15648 29.98611,-18.42559 1.60867,-1.54516 8.45609,-7.39775 6.57578,-9.70844 -1.98261,-2.4377 -5.207,-4.31447 -7.63411,-6.30061 -5.3975,-4.42384 -10.8585,-8.77359 -16.22778,-13.22917 -1.8027,-1.49578 -6.03956,-6.37117 -8.45256,-6.3112 -1.54516,0.0388 -3.05505,2.77989 -3.99697,3.79942 -2.59644,2.82222 -5.82436,5.24581 -9.06992,7.27075 -10.74914,6.70631 -24.65211,8.4702 -36.68889,4.35681 -33.4645,-11.43 -40.84108,-56.00701 -14.4638898,-78.64123 4.3427,-3.72533 9.6767,-6.6675 15.1694498,-8.31145 11.26772,-3.37255 23.92539,-2.36713 34.21944,3.52426 4.02873,2.30363 8.05039,5.18583 11.1372,8.67127 0.89253,1.00542 2.44122,3.75003 4.03578,3.41489 2.47297,-0.51858 5.47864,-4.10633 7.4048,-5.68325 5.8667,-4.81189 11.74045,-9.61672 17.63889,-14.38628 1.65453,-1.33702 7.15786,-4.462644 7.39423,-6.663974 0.17286,-1.59808 -2.1837,-3.51367 -3.15384,-4.55436 -3.54189,-3.80295 -7.12258,-7.32014 -11.29594,-10.44928 -16.77459,-12.58006 -40.28723,-20.04131 -61.38334,-17.272 m 93.133337,0.20461 v 38.452784 h 37.04167 v 135.46668 h 45.50833 V 103.55087 h 26.81112 c 2.19428,0 7.9128,1.02658 9.66611,-0.36336 1.56986,-1.24178 0.56444,-7.616474 0.56444,-9.514424 v -28.575 H 112.94005 m 139.70001,0 V 239.01755 h 98.77778 v -38.10001 h -53.62222 v -29.98611 h 50.8 v -38.45278 h -50.8 v -28.92778 h 53.62222 V 65.098086 h -98.77778 m 127.35278,0 c 2.57528,6.79097 8.55134,13.35264 12.58359,19.40278 8.94997,13.4232 17.97755,26.793474 26.92753,40.216674 l 10.34697,15.52222 c 1.016,1.524 3.54542,4.09575 3.5172,5.99723 -0.0282,2.17663 -3.38314,5.36575 -4.64609,7.05555 -4.28272,5.72206 -8.48078,11.51467 -12.69294,17.28611 -11.25714,15.4305 -22.54603,30.83984 -33.87726,46.2139 -3.63713,4.93183 -7.30955,9.83544 -10.87614,14.81666 -1.70038,2.3742 -3.98638,4.66725 -5.04119,7.40834 h 38.45278 10.93611 l 4.826,-0.21167 3.64067,-4.37444 7.61294,-10.58334 20.05189,-27.86945 9.37684,-13.40555 h 0.70555 l 9.63789,16.22778 16.002,26.10555 6.09248,9.87778 2.95627,4.02167 4.82248,0.21167 h 11.28889 38.80555 c -14.67908,-23.78781 -32.20155,-46.24212 -48.23178,-69.14445 -4.03225,-5.76086 -8.08214,-11.50761 -12.08616,-17.28611 -0.98778,-1.42875 -4.26509,-4.68842 -3.99345,-6.49817 0.32809,-2.16958 3.37256,-5.12939 4.64256,-6.90739 3.77119,-5.27403 7.47183,-10.59392 11.23597,-15.875 9.60967,-13.48317 19.25814,-26.955754 28.68436,-40.569454 4.04989,-5.84553 8.81945,-11.46175 12.34017,-17.63889 h -39.51111 -11.28889 c -1.4217,0 -3.49956,-0.37747 -4.82247,0.21167 -1.21356,0.54328 -1.89442,2.26483 -2.58587,3.31611 l -5.29166,8.11389 c -7.02381,10.65389 -15.71273,21.63233 -21.16667,33.161114 -6.71689,-9.43328 -11.65931,-21.381864 -16.84514,-31.750004 -1.4852,-2.96686 -3.10445,-5.85258 -4.58611,-8.81945 -0.61031,-1.22061 -1.19592,-3.09386 -2.39184,-3.86997 -1.12536,-0.73025 -3.12208,-0.36336 -4.39914,-0.36336 H 420.20951 379.99284 M -165.40164,142.35643 V 99.670316 c 8.93587,0 18.33281,-0.8255 26.45834,3.637134 12.33593,6.77687 13.25563,26.23962 1.76389,34.30765 -8.15058,5.72205 -18.80623,4.74133 -28.22223,4.74133 m -155.92778,-26.10556 12.94412,37.04167 7.16421,20.81389 h -40.56944 l 14.09241,-40.21667 z"
       id="path510" /></g></svg>
