<?xml version="1.0" encoding="UTF-8" standalone="no"?>
<!-- Created with Inkscape (http://www.inkscape.org/) -->

<svg
   width="297mm"
   height="210mm"
   viewBox="0 0 297 210"
   version="1.1"
   id="svg377"
   xml:space="preserve"
   sodipodi:docname="arctex_path.svg"
   inkscape:version="1.2.2 (732a01da63, 2022-12-09)"
   xmlns:inkscape="http://www.inkscape.org/namespaces/inkscape"
   xmlns:sodipodi="http://sodipodi.sourceforge.net/DTD/sodipodi-0.dtd"
   xmlns="http://www.w3.org/2000/svg"
   xmlns:svg="http://www.w3.org/2000/svg"><sodipodi:namedview
     id="namedview379"
     pagecolor="#505050"
     bordercolor="#eeeeee"
     borderopacity="1"
     inkscape:showpageshadow="0"
     inkscape:pageopacity="0"
     inkscape:pagecheckerboard="0"
     inkscape:deskcolor="#505050"
     inkscape:document-units="mm"
     showgrid="false"
     inkscape:zoom="0.74564394"
     inkscape:cx="657.15011"
     inkscape:cy="508.2855"
     inkscape:window-width="1920"
     inkscape:window-height="1017"
     inkscape:window-x="1912"
     inkscape:window-y="-8"
     inkscape:window-maximized="1"
     inkscape:current-layer="layer1" /><defs
     id="defs374" /><g
     inkscape:label="Layer 1"
     inkscape:groupmode="layer"
     id="layer1"><path
       style="fill:#232323;stroke:none;stroke-width:0.106867"
       d="m 21.059512,84.750393 -2.184813,5.69874 -3.829518,9.814497 -9.506758,24.37795 -4.71572327,12.13622 h 10.82182527 2.81368 c 0.320656,0 0.840638,0.0917 1.114423,-0.10863 0.443491,-0.32399 0.591857,-1.40041 0.761325,-1.89642 0.567392,-1.66001 1.178056,-3.30739 1.766449,-4.96002 0.23137,-0.65007 0.376272,-2.02937 1.229244,-2.10431 4.570707,-0.40103 9.367162,-0.007 13.958544,-0.007 h 3.679422 c 0.42713,0 1.107398,-0.12234 1.48496,0.10863 0.520961,0.31766 0.730588,1.56293 0.929162,2.10749 0.574431,1.57453 1.120395,3.16385 1.662132,4.74895 0.186782,0.54666 0.32314,1.53655 0.761312,1.94178 0.611654,0.56461 2.995918,0.16892 3.819884,0.16892 H 56.55512 l -1.577398,-4.2213 -3.138325,-8.02045 -10.212996,-26.171987 -3.827573,-9.81451 -1.02688,-2.63829 -0.523884,-1.05217 -1.120169,-0.10863 H 32.206008 21.059512 m 41.664051,0 v 52.027407 h 13.851931 v -19.9456 h 0.108263 c 0.745516,1.92069 2.382757,3.7675 3.533978,5.48768 2.087634,3.11847 4.10397,6.28232 6.205341,9.39237 0.802662,1.1883 1.593732,2.38715 2.375393,3.58808 0.282015,0.43375 0.594654,1.20414 1.107838,1.41414 0.446388,0.18258 1.127095,0.0635 1.603354,0.0635 h 3.462985 12.012244 l -1.69145,-2.32171 -3.57122,-4.53789 -11.402959,-14.45791 c 3.661244,-0.81894 7.042855,-2.62142 9.195312,-5.69876 4.485647,-6.41318 2.828827,-17.226007 -3.676174,-21.770227 -4.736936,-3.30845 -10.125663,-3.24089 -15.69166,-3.24089 H 62.723612 m 70.666538,0.0443 c -5.18691,0.66484 -9.85327,1.83627 -14.17659,4.88931 -12.71133,8.97551 -13.84437,28.082127 -3.55281,39.178837 7.11211,7.66798 19.81153,10.15219 29.6334,6.45752 3.39482,-1.27695 6.55912,-3.03828 9.19857,-5.51196 0.49347,-0.46223 2.59399,-2.21299 2.01718,-2.90423 -0.60819,-0.72925 -1.59731,-1.29066 -2.34184,-1.88482 -1.65573,-1.32337 -3.33096,-2.62459 -4.97804,-3.95744 -0.553,-0.44746 -1.8527,-1.90593 -2.59292,-1.88798 -0.47399,0.0123 -0.93716,0.83159 -1.22611,1.13657 -0.79649,0.84427 -1.78668,1.56928 -2.78228,2.17504 -3.29742,2.00617 -7.5623,2.53381 -11.25471,1.30331 -10.26558,-3.41924 -12.52842,-16.7543 -4.43695,-23.52524 1.33217,-1.114417 2.96843,-1.994567 4.65339,-2.486337 3.45648,-1.0089 7.33936,-0.70813 10.49717,1.05427 1.23585,0.68911 2.46954,1.551307 3.41645,2.593967 0.2738,0.30077 0.74887,1.1218 1.23802,1.02156 0.75861,-0.15521 1.68063,-1.2284 2.2715,-1.70013 1.79967,-1.439467 3.60151,-2.876807 5.41092,-4.303597 0.50753,-0.39996 2.19575,-1.33499 2.26825,-1.99352 0.0531,-0.47806 -0.66987,-1.05109 -0.96748,-1.36241 -1.0865,-1.13764 -2.18492,-2.1898 -3.46514,-3.12586 -5.14578,-3.76328 -12.35852,-5.99529 -18.82998,-5.16686 m 28.56963,0.0612 v 11.50302 h 11.36292 v 40.524387 h 13.96011 V 96.358843 h 8.22457 c 0.67314,0 2.42735,0.3071 2.96518,-0.10863 0.48159,-0.37147 0.17316,-2.27845 0.17316,-2.84621 v -8.54798 h -36.68599 m 42.85443,0 v 52.027387 h 30.30112 v -11.39759 h -16.44917 v -8.97026 h 15.58344 v -11.50301 h -15.58344 v -8.653627 h 16.44917 v -11.50301 h -30.30112 m 39.06681,0 c 0.78999,2.03148 2.6232,3.99439 3.86013,5.80425 2.74551,4.01551 5.51482,8.01519 8.26031,12.030677 l 3.17404,4.64343 c 0.31169,0.4559 1.0876,1.22524 1.07895,1.79405 -0.009,0.65113 -1.03783,1.60513 -1.42525,2.11063 -1.31376,1.71175 -2.60156,3.44459 -3.89369,5.1711 -3.45324,4.61597 -6.91622,9.22562 -10.39221,13.82472 -1.11571,1.47532 -2.24228,2.94223 -3.33636,4.43236 -0.52161,0.71022 -1.22287,1.39619 -1.54644,2.21617 h 11.79581 3.35474 l 1.48043,-0.0635 1.11683,-1.3086 2.33534,-3.16596 6.15112,-8.33705 2.87646,-4.01022 h 0.21642 l 2.95653,4.85449 4.90877,7.80937 1.86893,2.95491 0.90687,1.20306 1.47936,0.0635 h 3.46298 11.904 c -4.50295,-7.11604 -9.87814,-13.83318 -14.79561,-20.68431 -1.23692,-1.72334 -2.47927,-3.44247 -3.70754,-5.17109 -0.303,-0.4274 -1.30837,-1.40252 -1.22504,-1.94391 0.10068,-0.64902 1.03457,-1.53443 1.42415,-2.06632 1.15685,-1.5777 2.29206,-3.16913 3.44677,-4.74895 2.94786,-4.033437 5.90762,-8.063707 8.79921,-12.136197 1.24236,-1.74868 2.70546,-3.42875 3.78549,-5.27661 h -12.12044 -3.463 c -0.43611,0 -1.07351,-0.11285 -1.47934,0.0635 -0.37228,0.16259 -0.58113,0.67751 -0.79324,0.99199 l -1.62328,2.42725 c -2.15461,3.18707 -4.82003,6.47124 -6.49309,9.92002 -2.06047,-2.82193 -3.57662,-6.3963 -5.16741,-9.4979 -0.45562,-0.88753 -0.95233,-1.75078 -1.40685,-2.63829 -0.18723,-0.36514 -0.36686,-0.92552 -0.73373,-1.1577 -0.3452,-0.21846 -0.95773,-0.10863 -1.34947,-0.10863 h -3.35477 -12.33688 M 76.575494,107.96767 V 95.198273 c 2.741177,0 5.623782,-0.24695 8.116379,1.08804 3.784165,2.02726 4.066294,7.849477 0.541084,10.263017 -2.500274,1.71172 -5.768999,1.41834 -8.657463,1.41834 m -47.832481,-7.80938 3.970746,11.08087 2.197696,6.22641 H 22.466364 l 4.322993,-12.03068 z"
       id="path510" /></g></svg>
