<?xml version="1.0" encoding="UTF-8" standalone="no"?>
<!-- Created with Inkscape (http://www.inkscape.org/) -->

<svg
   width="297mm"
   height="210mm"
   viewBox="0 0 297 210"
   version="1.1"
   id="svg377"
   xml:space="preserve"
   sodipodi:docname="tagline_path.svg"
   inkscape:version="1.2.2 (732a01da63, 2022-12-09)"
   xmlns:inkscape="http://www.inkscape.org/namespaces/inkscape"
   xmlns:sodipodi="http://sodipodi.sourceforge.net/DTD/sodipodi-0.dtd"
   xmlns="http://www.w3.org/2000/svg"
   xmlns:svg="http://www.w3.org/2000/svg"><sodipodi:namedview
     id="namedview379"
     pagecolor="#505050"
     bordercolor="#eeeeee"
     borderopacity="1"
     inkscape:showpageshadow="0"
     inkscape:pageopacity="0"
     inkscape:pagecheckerboard="0"
     inkscape:deskcolor="#505050"
     inkscape:document-units="mm"
     showgrid="false"
     inkscape:zoom="0.5"
     inkscape:cx="421"
     inkscape:cy="418"
     inkscape:window-width="1920"
     inkscape:window-height="1017"
     inkscape:window-x="-8"
     inkscape:window-y="44"
     inkscape:window-maximized="1"
     inkscape:current-layer="layer1" /><defs
     id="defs374"><rect
       x="4.023368"
       y="541.81356"
       width="1115.8141"
       height="175.68707"
       id="rect288" /></defs><g
     inkscape:label="Layer 1"
     inkscape:groupmode="layer"
     id="layer1"><g
       aria-label="Innovating ideas into reality..."
       id="text1679"
       style="font-size:15.875px;fill:#232323;stroke:#000000;stroke-width:0.264999;stroke-dasharray:1.06, 0.264999;stroke-opacity:0.989637"><path
         id="path3056"
         style="stroke-width:0.265"
         d="m 256.99672,151.34166 h -1.8526 v -2.20917 h 1.8526 z m -5.77485,0 h -1.8526 v -2.20917 h 1.8526 z m -5.77484,0 h -1.8526 v -2.20917 h 1.8526 z m -2.81378,-8.65839 -5.05395,11.85199 h -1.55805 l 1.61231,-3.61218 -3.44941,-8.23981 h 1.5813 l 2.65876,6.41822 2.682,-6.41822 z m -9.16998,8.58087 q -0.41083,0.10853 -0.89917,0.17829 -0.48059,0.0698 -0.86041,0.0698 -1.3255,0 -2.01539,-0.71313 -0.68988,-0.71314 -0.68988,-2.28669 V 143.908 h -0.98443 v -1.22473 h 0.98443 v -2.48822 h 1.45728 v 2.48822 h 3.00757 v 1.22473 h -3.00757 v 3.9455 q 0,0.68213 0.031,1.0697 0.031,0.37982 0.21704,0.71314 0.17053,0.31006 0.46508,0.45733 0.30231,0.13953 0.91468,0.13953 0.35656,0 0.74414,-0.10077 0.38757,-0.10852 0.5581,-0.17828 h 0.0775 z m -7.28638,-10.03039 h -1.64331 v -1.51154 h 1.64331 z m -0.093,10.10791 h -1.45727 v -8.65839 h 1.45727 z m -4.35634,0 h -1.45727 v -12.06128 h 1.45727 z m -4.27881,0 h -1.44952 v -0.92242 q -0.19379,0.13177 -0.5271,0.37207 -0.32556,0.23254 -0.63562,0.37207 -0.36432,0.17828 -0.83716,0.29455 -0.47284,0.12402 -1.10846,0.12402 -1.17047,0 -1.98437,-0.77514 -0.81391,-0.77515 -0.81391,-1.97663 0,-0.98443 0.41858,-1.58905 0.42633,-0.61236 1.20923,-0.96118 0.79065,-0.34881 1.89911,-0.47284 1.10846,-0.12402 2.3797,-0.18603 v -0.22479 q 0,-0.4961 -0.17829,-0.82166 -0.17053,-0.32556 -0.49609,-0.5116 -0.31006,-0.17828 -0.74414,-0.24029 -0.43408,-0.062 -0.90692,-0.062 -0.57361,0 -1.27899,0.15503 -0.70539,0.14727 -1.45728,0.43408 H 210.86 v -1.48053 q 0.42633,-0.11627 1.23248,-0.2558 0.80615,-0.13953 1.58905,-0.13953 0.91467,0 1.58905,0.15503 0.68213,0.14728 1.17822,0.5116 0.48835,0.35657 0.74414,0.92242 0.2558,0.56586 0.2558,1.40302 z m -1.44952,-2.13165 v -2.41071 q -0.66663,0.0388 -1.57355,0.11627 -0.89917,0.0775 -1.42627,0.2248 -0.62787,0.17828 -1.01544,0.5581 -0.38757,0.37207 -0.38757,1.03095 0,0.74414 0.44958,1.12396 0.44959,0.37207 1.37201,0.37207 0.7674,0 1.40302,-0.29456 0.63562,-0.3023 1.17822,-0.72088 z m -7.48792,-2.04639 h -6.37945 q 0,0.7984 0.24029,1.39526 0.2403,0.58911 0.65888,0.96894 0.40307,0.37207 0.95343,0.5581 0.5581,0.18604 1.22473,0.18604 0.88367,0 1.77508,-0.34882 0.89917,-0.35657 1.279,-0.69763 h 0.0775 v 1.58905 q -0.73639,0.31006 -1.50378,0.51935 -0.7674,0.20929 -1.61231,0.20929 -2.15491,0 -3.36413,-1.16272 -1.20923,-1.17047 -1.20923,-3.31763 0,-2.1239 1.15497,-3.37189 1.16272,-1.24798 3.05407,-1.24798 1.75183,0 2.69751,1.02319 0.95343,1.02319 0.95343,2.9068 z m -1.41852,-1.11621 q -0.008,-1.14722 -0.58135,-1.77509 -0.56586,-0.62787 -1.72858,-0.62787 -1.17047,0 -1.8681,0.68989 -0.68989,0.68988 -0.7829,1.71307 z m -7.20111,-1.77509 h -0.0775 q -0.32556,-0.0775 -0.63562,-0.10852 -0.30231,-0.0388 -0.72089,-0.0388 -0.67437,0 -1.30224,0.3023 -0.62787,0.29456 -1.20923,0.7674 v 6.14691 h -1.45728 v -8.65839 h 1.45728 v 1.279 q 0.86816,-0.69764 1.52704,-0.98444 0.66662,-0.29456 1.3565,-0.29456 0.37983,0 0.55036,0.0233 0.17053,0.0155 0.51159,0.0698 z m -13.2395,2.74402 q 0,2.11615 -1.0852,3.34088 -1.08521,1.22473 -2.9068,1.22473 -1.8371,0 -2.9223,-1.22473 -1.07746,-1.22473 -1.07746,-3.34088 0,-2.11615 1.07746,-3.34088 1.0852,-1.23248 2.9223,-1.23248 1.82159,0 2.9068,1.23248 1.0852,1.22473 1.0852,3.34088 z m -1.50378,0 q 0,-1.68207 -0.65888,-2.49597 -0.65887,-0.82165 -1.82934,-0.82165 -1.18598,0 -1.84485,0.82165 -0.65112,0.8139 -0.65112,2.49597 0,1.62781 0.65887,2.47272 0.65888,0.83716 1.8371,0.83716 1.16272,0 1.82159,-0.82941 0.66663,-0.83716 0.66663,-2.48047 z m -7.63519,4.2478 q -0.41083,0.10853 -0.89917,0.17829 -0.4806,0.0698 -0.86042,0.0698 -1.3255,0 -2.01538,-0.71313 -0.68988,-0.71314 -0.68988,-2.28669 V 143.908 h -0.98443 v -1.22473 h 0.98443 v -2.48822 h 1.45728 v 2.48822 h 3.00757 v 1.22473 h -3.00757 v 3.9455 q 0,0.68213 0.031,1.0697 0.031,0.37982 0.21704,0.71314 0.17054,0.31006 0.46509,0.45733 0.30231,0.13953 0.91467,0.13953 0.35657,0 0.74414,-0.10077 0.38758,-0.10852 0.55811,-0.17828 h 0.0775 z m -7.30188,0.0775 h -1.45728 v -4.92993 q 0,-0.59686 -0.0698,-1.11621 -0.0698,-0.5271 -0.2558,-0.82166 -0.19379,-0.32556 -0.55811,-0.48059 -0.36432,-0.16278 -0.94568,-0.16278 -0.59686,0 -1.24798,0.29456 -0.65112,0.29455 -1.24799,0.75189 v 6.46472 h -1.45727 v -8.65839 h 1.45727 v 0.96118 q 0.68213,-0.56585 1.41077,-0.88366 0.72864,-0.31781 1.49603,-0.31781 1.40302,0 2.13941,0.84491 0.73639,0.84491 0.73639,2.43396 z m -10.0304,-10.10791 h -1.64331 v -1.51154 h 1.64331 z m -0.093,10.10791 h -1.45727 v -8.65839 h 1.45727 z m -9.13899,-2.49597 q 0,1.18597 -0.98444,1.94562 -0.97669,0.75964 -2.67426,0.75964 -0.96118,0 -1.76733,-0.22479 -0.7984,-0.23255 -1.341,-0.50385 v -1.63556 h 0.0775 q 0.68988,0.51935 1.53479,0.82941 0.84491,0.30231 1.62006,0.30231 0.96118,0 1.50378,-0.31006 0.5426,-0.31006 0.5426,-0.97669 0,-0.51159 -0.29455,-0.77514 -0.29456,-0.26355 -1.13172,-0.44959 -0.31005,-0.0698 -0.8139,-0.16278 -0.49609,-0.093 -0.90692,-0.20154 -1.13947,-0.3023 -1.62006,-0.88366 -0.47284,-0.58912 -0.47284,-1.44178 0,-0.53485 0.21704,-1.00769 0.2248,-0.47284 0.67438,-0.84491 0.43408,-0.36432 1.10071,-0.57361 0.67438,-0.21704 1.50378,-0.21704 0.77515,0 1.5658,0.19379 0.7984,0.18604 1.3255,0.45734 v 1.55804 h -0.0775 q -0.55811,-0.41083 -1.35651,-0.68988 -0.7984,-0.2868 -1.5658,-0.2868 -0.7984,0 -1.34875,0.31006 -0.55036,0.3023 -0.55036,0.90692 0,0.53485 0.33332,0.80615 0.32556,0.2713 1.0542,0.44183 0.40307,0.093 0.89917,0.18604 0.50384,0.093 0.83716,0.17053 1.01544,0.23254 1.56579,0.7984 0.55036,0.57361 0.55036,1.51929 z m -8.9917,2.49597 h -1.44953 v -0.92242 q -0.19378,0.13177 -0.5271,0.37207 -0.32556,0.23254 -0.63562,0.37207 -0.36432,0.17828 -0.83716,0.29455 -0.47284,0.12402 -1.10846,0.12402 -1.17047,0 -1.98437,-0.77514 -0.8139,-0.77515 -0.8139,-1.97663 0,-0.98443 0.41857,-1.58905 0.42634,-0.61236 1.20923,-0.96118 0.79065,-0.34881 1.89911,-0.47284 1.10846,-0.12402 2.3797,-0.18603 v -0.22479 q 0,-0.4961 -0.17828,-0.82166 -0.17053,-0.32556 -0.4961,-0.5116 -0.31005,-0.17828 -0.74414,-0.24029 -0.43408,-0.062 -0.90692,-0.062 -0.57361,0 -1.27899,0.15503 -0.70538,0.14727 -1.45727,0.43408 h -0.0775 v -1.48053 q 0.42633,-0.11627 1.23248,-0.2558 0.80616,-0.13953 1.58905,-0.13953 0.91468,0 1.58905,0.15503 0.68213,0.14728 1.17823,0.5116 0.48834,0.35657 0.74414,0.92242 0.2558,0.56586 0.2558,1.40302 z m -1.44953,-2.13165 v -2.41071 q -0.66662,0.0388 -1.57355,0.11627 -0.89917,0.0775 -1.42627,0.2248 -0.62786,0.17828 -1.01544,0.5581 -0.38757,0.37207 -0.38757,1.03095 0,0.74414 0.44958,1.12396 0.44959,0.37207 1.37201,0.37207 0.7674,0 1.40302,-0.29456 0.63562,-0.3023 1.17822,-0.72088 z m -7.48791,-2.04639 h -6.37946 q 0,0.7984 0.2403,1.39526 0.24029,0.58911 0.65887,0.96894 0.40308,0.37207 0.95343,0.5581 0.55811,0.18604 1.22473,0.18604 0.88367,0 1.77509,-0.34882 0.89917,-0.35657 1.27899,-0.69763 h 0.0775 v 1.58905 q -0.73638,0.31006 -1.50378,0.51935 -0.76739,0.20929 -1.6123,0.20929 -2.15491,0 -3.36414,-1.16272 -1.20923,-1.17047 -1.20923,-3.31763 0,-2.1239 1.15497,-3.37189 1.16272,-1.24798 3.05408,-1.24798 1.75183,0 2.69751,1.02319 0.95343,1.02319 0.95343,2.9068 z m -1.41852,-1.11621 q -0.008,-1.14722 -0.58136,-1.77509 -0.56586,-0.62787 -1.72858,-0.62787 -1.17047,0 -1.8681,0.68989 -0.68988,0.68988 -0.7829,1.71307 z m -8.69714,5.29425 h -1.45728 v -0.90692 q -0.62787,0.5426 -1.31,0.84491 -0.68213,0.3023 -1.48053,0.3023 -1.55029,0 -2.46496,-1.19372 -0.90692,-1.19373 -0.90692,-3.30988 0,-1.1007 0.31005,-1.96112 0.31781,-0.86041 0.85266,-1.46502 0.5271,-0.58911 1.22474,-0.89917 0.70538,-0.31006 1.45727,-0.31006 0.68213,0 1.20923,0.14728 0.5271,0.13952 1.10846,0.44183 v -3.75171 h 1.45728 z m -1.45728,-2.13165 v -4.96869 q -0.58911,-0.26355 -1.0542,-0.36432 -0.46509,-0.10077 -1.01544,-0.10077 -1.22473,0 -1.90686,0.85266 -0.68213,0.85266 -0.68213,2.41846 0,1.54254 0.5271,2.34869 0.5271,0.7984 1.68982,0.7984 0.62012,0 1.25574,-0.2713 0.63562,-0.27905 1.18597,-0.71313 z m -8.35608,-7.97626 h -1.64331 v -1.51154 h 1.64331 z m -0.093,10.10791 h -1.45727 v -8.65839 h 1.45727 z m -9.92189,-0.98444 q 0,2.20142 -0.99994,3.23236 -0.99994,1.03095 -3.077332,1.03095 -0.689881,0 -1.348755,-0.10077 -0.651123,-0.093 -1.286743,-0.2713 v -1.48828 h 0.07751 q 0.356568,0.13952 1.131714,0.34106 0.775147,0.20929 1.550293,0.20929 0.744141,0 1.232483,-0.17828 0.48835,-0.17829 0.75965,-0.4961 0.2713,-0.3023 0.38757,-0.72863 0.11627,-0.42633 0.11627,-0.95343 v -0.79065 q -0.65887,0.5271 -1.26349,0.79065 -0.596863,0.25579 -1.527039,0.25579 -1.550293,0 -2.464965,-1.11621 -0.906922,-1.12396 -0.906922,-3.16259 0,-1.11621 0.310059,-1.92237 0.31781,-0.8139 0.860412,-1.40301 0.503846,-0.55036 1.224732,-0.85266 0.720886,-0.31006 1.434021,-0.31006 0.751892,0 1.255742,0.15503 0.5116,0.14728 1.07745,0.45733 l 0.093,-0.37207 h 1.36426 z m -1.45728,-1.39526 v -4.72064 q -0.58136,-0.26355 -1.0852,-0.37207 -0.4961,-0.11627 -0.99219,-0.11627 -1.201477,0 -1.891357,0.80615 -0.689881,0.80615 -0.689881,2.34094 0,1.45728 0.511597,2.20917 0.511597,0.75189 1.697571,0.75189 0.63562,0 1.27124,-0.2403 0.64337,-0.24804 1.17822,-0.65887 z m -8.371579,2.3797 h -1.457276 v -4.92993 q 0,-0.59686 -0.06976,-1.11621 -0.06976,-0.5271 -0.255798,-0.82166 -0.193787,-0.32556 -0.558106,-0.48059 -0.364319,-0.16278 -0.945678,-0.16278 -0.596863,0 -1.247986,0.29456 -0.651123,0.29455 -1.247986,0.75189 v 6.46472 h -1.457275 v -8.65839 h 1.457275 v 0.96118 q 0.682129,-0.56585 1.410767,-0.88366 0.728637,-0.31781 1.496032,-0.31781 1.403015,0 2.139405,0.84491 0.736389,0.84491 0.736389,2.43396 z M 83.216625,141.23375 h -1.64331 v -1.51154 h 1.64331 z m -0.09302,10.10791 h -1.457276 v -8.65839 h 1.457276 z m -3.232358,-0.0775 q -0.410828,0.10853 -0.89917,0.17829 -0.480591,0.0698 -0.860413,0.0698 -1.3255,0 -2.015381,-0.71313 -0.68988,-0.71314 -0.68988,-2.28669 V 143.908 h -0.984436 v -1.22473 h 0.984436 v -2.48822 h 1.457275 v 2.48822 h 3.007569 v 1.22473 h -3.007569 v 3.9455 q 0,0.68213 0.03101,1.0697 0.03101,0.37982 0.217041,0.71314 0.170533,0.31006 0.465088,0.45733 0.302307,0.13953 0.914673,0.13953 0.356567,0 0.744141,-0.10077 0.387573,-0.10852 0.558105,-0.17828 h 0.07752 z m -7.30188,0.0775 h -1.449524 v -0.92242 q -0.193787,0.13177 -0.5271,0.37207 -0.325561,0.23254 -0.63562,0.37207 -0.364319,0.17828 -0.837158,0.29455 -0.472839,0.12402 -1.108459,0.12402 -1.170472,0 -1.984375,-0.77514 -0.813904,-0.77515 -0.813904,-1.97663 0,-0.98443 0.418579,-1.58905 0.42633,-0.61236 1.209228,-0.96118 0.79065,-0.34881 1.899109,-0.47284 1.10846,-0.12402 2.3797,-0.18603 v -0.22479 q 0,-0.4961 -0.178284,-0.82166 -0.170532,-0.32556 -0.496093,-0.5116 -0.310059,-0.17828 -0.744141,-0.24029 -0.434082,-0.062 -0.906921,-0.062 -0.573609,0 -1.278992,0.15503 -0.705383,0.14727 -1.457276,0.43408 h -0.07751 v -1.48053 q 0.42633,-0.11627 1.232483,-0.2558 0.806152,-0.13953 1.58905,-0.13953 0.914673,0 1.58905,0.15503 0.682129,0.14728 1.178223,0.5116 0.488342,0.35657 0.744141,0.92242 0.255798,0.56586 0.255798,1.40302 z m -1.449524,-2.13165 v -2.41071 q -0.666626,0.0388 -1.573547,0.11627 -0.89917,0.0775 -1.42627,0.2248 -0.627869,0.17828 -1.015442,0.5581 -0.387573,0.37207 -0.387573,1.03095 0,0.74414 0.449585,1.12396 0.449585,0.37207 1.372009,0.37207 0.767395,0 1.403015,-0.29456 0.63562,-0.3023 1.178223,-0.72088 z m -6.875549,-6.52674 -3.503662,8.65839 h -1.465027 l -3.480408,-8.65839 h 1.581299 l 2.682007,6.89106 2.658752,-6.89106 z m -9.62732,4.33307 q 0,2.11615 -1.085205,3.34088 -1.085205,1.22473 -2.906799,1.22473 -1.837097,0 -2.922302,-1.22473 -1.077454,-1.22473 -1.077454,-3.34088 0,-2.11615 1.077454,-3.34088 1.085205,-1.23248 2.922302,-1.23248 1.821594,0 2.906799,1.23248 1.085205,1.22473 1.085205,3.34088 z m -1.503784,0 q 0,-1.68207 -0.658874,-2.49597 -0.658875,-0.82165 -1.829346,-0.82165 -1.185974,0 -1.844849,0.82165 -0.651123,0.8139 -0.651123,2.49597 0,1.62781 0.658875,2.47272 0.658874,0.83716 1.837097,0.83716 1.16272,0 1.821594,-0.82941 0.666626,-0.83716 0.666626,-2.48047 z m -8.68164,4.32532 h -1.457276 v -4.92993 q 0,-0.59686 -0.06976,-1.11621 -0.06976,-0.5271 -0.255798,-0.82166 -0.193787,-0.32556 -0.558106,-0.48059 -0.364319,-0.16278 -0.945679,-0.16278 -0.596862,0 -1.247985,0.29456 -0.651123,0.29455 -1.247986,0.75189 v 6.46472 h -1.457276 v -8.65839 h 1.457276 v 0.96118 q 0.682129,-0.56585 1.410766,-0.88366 0.728638,-0.31781 1.496033,-0.31781 1.403015,0 2.139404,0.84491 0.73639,0.84491 0.73639,2.43396 z m -10.045899,0 h -1.457275 v -4.92993 q 0,-0.59686 -0.06976,-1.11621 -0.06976,-0.5271 -0.255799,-0.82166 -0.193786,-0.32556 -0.558105,-0.48059 -0.364319,-0.16278 -0.945679,-0.16278 -0.596863,0 -1.247986,0.29456 -0.651123,0.29455 -1.247986,0.75189 v 6.46472 h -1.457275 v -8.65839 h 1.457275 v 0.96118 q 0.682129,-0.56585 1.410767,-0.88366 0.728638,-0.31781 1.496033,-0.31781 1.403015,0 2.139404,0.84491 0.736389,0.84491 0.736389,2.43396 z m -9.73584,0 H 20.11195 v -1.17822 h 1.511536 v -9.18549 H 20.11195 v -1.17822 h 4.557861 v 1.17822 h -1.511535 v 9.18549 h 1.511535 z" /></g></g></svg>
